<?xml version="1.0" standalone="no"?>
<!DOCTYPE svg PUBLIC "-//W3C//DTD SVG 20010904//EN"
 "http://www.w3.org/TR/2001/REC-SVG-20010904/DTD/svg10.dtd">
<svg version="1.0" xmlns="http://www.w3.org/2000/svg"
 width="512.000000pt" height="512.000000pt" viewBox="0 0 512.000000 512.000000"
 preserveAspectRatio="xMidYMid meet">
<metadata>
Created by potrace 1.14, written by Peter Selinger 2001-2017
</metadata>
<g transform="translate(0.000000,512.000000) scale(0.100000,-0.100000)"
fill="#000000" stroke="none">
<path d="M2390 5110 c-935 -60 -1780 -647 -2160 -1501 l-48 -106 72 -6 c85 -8
172 -36 237 -78 105 -67 201 -202 228 -319 17 -73 13 -188 -9 -268 -37 -133
-27 -165 89 -280 60 -60 102 -114 132 -167 82 -147 168 -165 280 -60 125 117
318 195 481 195 l54 0 349 -350 350 -351 -1 -97 c-2 -158 -65 -314 -175 -436
-57 -63 -69 -86 -69 -128 0 -37 29 -92 57 -107 10 -5 48 -17 83 -26 36 -9 103
-35 149 -57 72 -34 99 -55 185 -143 138 -140 139 -141 306 -137 113 2 146 0
201 -17 124 -39 238 -133 293 -243 23 -46 30 -71 53 -196 l8 -42 130 63 c275
134 479 280 696 496 328 329 552 715 668 1152 106 396 113 833 21 1235 -35
152 -119 396 -179 520 l-58 119 -42 -83 c-202 -401 -544 -854 -858 -1138 -381
-344 -751 -502 -1064 -455 l-77 12 -123 127 c-68 70 -228 233 -356 362 l-232
235 -10 70 c-17 117 10 306 62 446 183 485 781 1068 1475 1436 l113 60 -83 38
c-385 175 -803 252 -1228 225z m-1278 -1787 c22 -20 23 -70 1 -95 -20 -22 -70
-23 -95 -1 -22 20 -23 70 -1 95 20 22 70 23 95 1z m109 -442 c34 -33 39 -45
39 -82 0 -56 -16 -87 -60 -117 -29 -19 -44 -23 -84 -19 -95 9 -143 101 -101
191 21 43 60 65 119 66 43 0 53 -4 87 -39z m1778 -1737 c52 -37 59 -113 15
-158 -31 -30 -70 -38 -110 -21 -102 42 -76 195 33 195 21 0 49 -7 62 -16z
m382 -85 c27 -27 21 -66 -12 -91 -25 -19 -28 -19 -58 -4 -17 9 -31 21 -31 25
0 5 -2 16 -5 23 -9 22 33 68 61 68 13 0 33 -9 45 -21z"/>
<path d="M4450 5093 c-72 -7 -239 -46 -343 -79 -97 -32 -295 -109 -307 -120
-5 -5 1031 -1044 1041 -1044 12 0 72 146 121 293 215 652 25 1006 -512 950z"/>
<path d="M3512 4085 c-64 -18 -83 -27 -145 -72 -139 -101 -203 -308 -147 -474
40 -118 104 -190 219 -247 73 -36 78 -37 186 -37 108 0 113 1 187 38 189 93
280 304 219 505 -36 120 -137 229 -251 273 -72 28 -197 34 -268 14z"/>
</g>
</svg>
